<svg width="2451" height="1427" viewBox="0 0 2451 1427" fill="none" xmlns="http://www.w3.org/2000/svg">
<path fill-rule="evenodd" clip-rule="evenodd" d="M1765.61 777.65C1709.59 764.146 1647.49 730.672 1592.38 694.694C1530.98 654.596 1478.26 611.386 1452.33 589.231C1441.36 579.853 1435.18 574.246 1435.18 574.246C1294.36 449.572 965.241 225.015 670.875 161.902C507.071 242.445 322.097 559.856 315.247 671.01C309.161 769.779 470.121 669.502 470.121 669.502C441.649 554.644 498.087 419.46 632.057 361.995C904.917 244.95 1138.6 461.697 1338.94 634.619C1357.58 650.712 1375.93 666.421 1394 681.45L1480.76 755.692L1538.83 805.387C1569.55 829.503 1620.72 860.842 1680.42 888.884C1937.45 890.077 1946.55 722.778 1914.2 713.778C1905.49 752.834 1847.67 797.428 1765.61 777.65Z" fill="#1C0000"/>
<mask id="mask0_35_15" style="mask-type:luminance" maskUnits="userSpaceOnUse" x="104" y="146" width="2037" height="1136">
<path d="M1895.52 782.628C1871.5 829.359 1814.7 885.473 1680.42 888.882C1788.5 939.651 1924.52 979.616 2017.66 946.344C2239.04 867.267 2151.47 588.6 1830.3 545.682C1398.14 487.933 754.73 1087.78 506.736 739.962C384.794 568.931 465.668 262.803 670.876 161.902C-86.0073 -0.383996 -46.0373 1129.67 560.027 1270.9C1044.27 1383.75 1512.54 541.236 1873.52 662.146C1930.08 681.091 1918 738.897 1895.52 782.628Z" fill="white"/>
</mask>
<g mask="url(#mask0_35_15)">
<path d="M2239.04 -0.385132H-86.0068V1383.75H2239.04V-0.385132Z" fill="url(#paint0_linear_35_15)"/>
</g>
<path fill-rule="evenodd" clip-rule="evenodd" d="M2124.98 860.407C2204.65 683.333 1871.92 656.352 1830.06 652.183C1844.71 654.068 1859.2 657.348 1873.52 662.144C1902.09 671.714 1913.15 691.197 1914.2 713.776C1915.23 735.896 1906.65 760.987 1895.52 782.628C1871.5 829.359 1814.7 885.473 1680.42 888.882C1788.5 939.651 1924.52 979.616 2017.66 946.344C2071.05 927.27 2106.48 896.591 2124.98 860.407Z" fill="#5C0101"/>
<path fill-rule="evenodd" clip-rule="evenodd" d="M470.123 669.502C419.817 530.059 463.581 345.669 574.691 232.205C602.634 203.671 634.837 179.621 670.875 161.902C328.964 88.5919 149.664 279.001 111.699 522.847C209.338 1011.17 842.529 836.168 842.529 836.168C703.738 865.256 585.364 850.241 506.736 739.962C491.36 718.396 479.207 694.681 470.123 669.502Z" fill="#690000"/>
<path d="M1145.52 1225.14C1145.52 1234.38 1148.74 1242.31 1155.18 1248.94C1161.62 1255.47 1169.46 1258.74 1178.7 1258.74H1189.48C1195.64 1258.74 1200.87 1260.93 1205.16 1265.32C1209.55 1269.61 1211.74 1274.84 1211.74 1281H1178.7C1163.21 1281 1149.86 1275.59 1138.66 1264.76C1127.55 1253.84 1122 1240.63 1122 1225.14V1169C1128.44 1169 1133.95 1171.33 1138.52 1176C1143.19 1180.57 1145.52 1186.08 1145.52 1192.52V1225.14ZM1236.44 1272.88V1281C1230 1281 1224.44 1278.71 1219.78 1274.14C1215.2 1269.47 1212.92 1263.92 1212.92 1257.48V1249.36C1219.36 1249.36 1224.86 1251.69 1229.44 1256.36C1234.1 1260.93 1236.44 1266.44 1236.44 1272.88ZM1423.53 1225.14V1281H1366.69C1351.19 1281 1337.85 1275.59 1326.65 1264.76C1315.54 1253.84 1309.99 1240.63 1309.99 1225.14C1309.99 1209.65 1315.54 1196.44 1326.65 1185.52C1337.85 1174.51 1351.19 1169 1366.69 1169C1382.18 1169 1395.53 1174.51 1406.73 1185.52C1417.93 1196.44 1423.53 1209.65 1423.53 1225.14ZM1399.73 1258.74V1225.14C1399.73 1215.9 1396.51 1207.97 1390.07 1201.34C1383.72 1194.62 1375.93 1191.26 1366.69 1191.26C1357.45 1191.26 1349.61 1194.62 1343.17 1201.34C1336.82 1207.97 1333.65 1215.9 1333.65 1225.14C1333.65 1234.38 1336.82 1242.31 1343.17 1248.94C1349.61 1255.47 1357.45 1258.74 1366.69 1258.74H1399.73ZM1457.92 1272.88V1281C1451.48 1281 1445.93 1278.71 1441.26 1274.14C1436.69 1269.47 1434.4 1263.92 1434.4 1257.48V1249.36C1440.84 1249.36 1446.35 1251.69 1450.92 1256.36C1455.59 1260.93 1457.92 1266.44 1457.92 1272.88ZM1554.99 1192.52V1281C1548.55 1281 1543 1278.71 1538.33 1274.14C1533.76 1269.47 1531.47 1263.92 1531.47 1257.48V1169C1537.91 1169 1543.42 1171.33 1547.99 1176C1552.66 1180.57 1554.99 1186.08 1554.99 1192.52ZM1673.15 1225.14C1673.15 1215.99 1669.93 1208.06 1663.49 1201.34C1657.05 1194.62 1649.26 1191.26 1640.11 1191.26C1630.87 1191.26 1623.03 1194.62 1616.59 1201.34C1610.15 1207.97 1606.93 1215.9 1606.93 1225.14V1257.48C1606.93 1263.92 1604.6 1269.47 1599.93 1274.14C1595.36 1278.71 1589.85 1281 1583.41 1281V1225.14C1583.41 1209.65 1588.96 1196.44 1600.07 1185.52C1611.18 1174.51 1624.52 1169 1640.11 1169C1655.6 1169 1668.9 1174.51 1680.01 1185.52C1691.12 1196.44 1696.67 1209.65 1696.67 1225.14V1281C1690.23 1281 1684.68 1278.71 1680.01 1274.14C1675.44 1269.47 1673.15 1263.92 1673.15 1257.48V1225.14ZM1773.07 1213.94C1769.9 1213.94 1767.24 1215.01 1765.09 1217.16C1763.04 1219.31 1762.01 1221.97 1762.01 1225.14C1762.01 1228.22 1763.08 1230.83 1765.23 1232.98C1767.38 1235.03 1769.99 1236.06 1773.07 1236.06H1791.69C1797.85 1236.06 1803.12 1233.91 1807.51 1229.62C1811.9 1225.33 1814.09 1220.1 1814.09 1213.94H1773.07ZM1747.87 1224.86V1257.48C1747.87 1263.92 1745.54 1269.47 1740.87 1274.14C1736.3 1278.71 1730.79 1281 1724.35 1281V1224.86C1724.35 1209.37 1729.9 1196.21 1741.01 1185.38C1752.21 1174.46 1765.56 1169 1781.05 1169H1814.09C1814.09 1175.16 1811.9 1180.43 1807.51 1184.82C1803.22 1189.11 1797.99 1191.26 1791.83 1191.26H1781.05C1771.81 1191.26 1763.97 1194.57 1757.53 1201.2C1751.09 1207.73 1747.87 1215.62 1747.87 1224.86ZM1858.46 1192.52V1281C1852.02 1281 1846.47 1278.71 1841.8 1274.14C1837.23 1269.47 1834.94 1263.92 1834.94 1257.48V1169C1841.38 1169 1846.89 1171.33 1851.46 1176C1856.13 1180.57 1858.46 1186.08 1858.46 1192.52ZM1976.62 1225.14C1976.62 1215.99 1973.4 1208.06 1966.96 1201.34C1960.52 1194.62 1952.72 1191.26 1943.58 1191.26C1934.34 1191.26 1926.5 1194.62 1920.06 1201.34C1913.62 1207.97 1910.4 1215.9 1910.4 1225.14V1257.48C1910.4 1263.92 1908.06 1269.47 1903.4 1274.14C1898.82 1278.71 1893.32 1281 1886.88 1281V1225.14C1886.88 1209.65 1892.43 1196.44 1903.54 1185.52C1914.64 1174.51 1927.99 1169 1943.58 1169C1959.07 1169 1972.37 1174.51 1983.48 1185.52C1994.58 1196.44 2000.14 1209.65 2000.14 1225.14V1281C1993.7 1281 1988.14 1278.71 1983.48 1274.14C1978.9 1269.47 1976.62 1263.92 1976.62 1257.48V1225.14ZM2051.34 1192.52V1281C2044.9 1281 2039.34 1278.71 2034.68 1274.14C2030.1 1269.47 2027.82 1263.92 2027.82 1257.48V1169C2034.26 1169 2039.76 1171.33 2044.34 1176C2049 1180.57 2051.34 1186.08 2051.34 1192.52ZM2192.59 1170.68C2192.59 1176.84 2190.4 1182.11 2186.01 1186.5C2181.72 1190.79 2176.49 1192.94 2170.33 1192.94H2147.93V1281C2141.49 1281 2135.94 1278.71 2131.27 1274.14C2126.7 1269.47 2124.41 1263.92 2124.41 1257.48V1192.94H2102.01C2095.85 1192.94 2090.58 1190.79 2086.19 1186.5C2081.9 1182.11 2079.75 1176.84 2079.75 1170.68H2192.59ZM2283.68 1281H2260.02V1251.6C2247.05 1248.8 2236.32 1242.31 2227.82 1232.14C2219.42 1221.87 2215.22 1210.11 2215.22 1196.86V1169C2221.66 1169 2227.17 1171.33 2231.74 1176C2236.41 1180.57 2238.74 1186.08 2238.74 1192.52V1196.86C2238.74 1206.1 2241.96 1214.08 2248.4 1220.8C2254.84 1227.43 2262.68 1230.74 2271.92 1230.74C2281.07 1230.74 2288.86 1227.38 2295.3 1220.66C2301.74 1213.94 2304.96 1206.01 2304.96 1196.86V1192.52C2304.96 1186.08 2307.25 1180.57 2311.82 1176C2316.49 1171.33 2322.04 1169 2328.48 1169V1196.86C2328.48 1210.11 2324.24 1221.87 2315.74 1232.14C2307.34 1242.41 2296.66 1248.94 2283.68 1251.74V1281Z" fill="white"/>
<defs>
<linearGradient id="paint0_linear_35_15" x1="163.5" y1="1035" x2="1374.98" y2="746.361" gradientUnits="userSpaceOnUse">
<stop/>
<stop offset="1" stop-color="#8D0303"/>
</linearGradient>
</defs>
</svg>
