<svg width="2172" height="1136" viewBox="0 0 2172 1136" fill="none" xmlns="http://www.w3.org/2000/svg">
<path fill-rule="evenodd" clip-rule="evenodd" d="M1661.61 631.65C1605.59 618.146 1543.49 584.672 1488.38 548.694C1426.98 508.596 1374.26 465.386 1348.33 443.231C1337.36 433.853 1331.18 428.246 1331.18 428.246C1190.36 303.572 861.241 79.0152 566.875 15.9019C403.071 96.4448 218.097 413.856 211.247 525.01C205.161 623.779 366.121 523.502 366.121 523.502C337.649 408.644 394.087 273.46 528.057 215.995C800.917 98.9496 1034.6 315.697 1234.94 488.619C1253.58 504.712 1271.93 520.421 1290 535.45L1376.76 609.692L1434.83 659.387C1465.55 683.503 1516.72 714.842 1576.42 742.884C1833.45 744.077 1842.55 576.778 1810.2 567.778C1801.49 606.834 1743.67 651.428 1661.61 631.65Z" fill="#1C0000"/>
<mask id="mask0_21_97" style="mask-type:luminance" maskUnits="userSpaceOnUse" x="0" y="0" width="2037" height="1136">
<path d="M1791.52 636.628C1767.5 683.359 1710.7 739.473 1576.42 742.882C1684.5 793.651 1820.52 833.616 1913.66 800.344C2135.04 721.267 2047.47 442.6 1726.3 399.682C1294.14 341.933 650.73 941.78 402.736 593.962C280.794 422.931 361.668 116.803 566.876 15.9019C-190.007 -146.384 -150.037 983.667 456.027 1124.9C940.268 1237.75 1408.54 395.236 1769.52 516.146C1826.08 535.091 1814 592.897 1791.52 636.628Z" fill="white"/>
</mask>
<g mask="url(#mask0_21_97)">
<path d="M2135.04 -146.385H-190.007V1237.75H2135.04V-146.385Z" fill="url(#paint0_linear_21_97)"/>
</g>
<path fill-rule="evenodd" clip-rule="evenodd" d="M2020.98 714.407C2100.65 537.333 1767.92 510.352 1726.06 506.183C1740.71 508.068 1755.2 511.348 1769.52 516.144C1798.09 525.714 1809.15 545.197 1810.2 567.776C1811.23 589.896 1802.65 614.987 1791.52 636.628C1767.5 683.359 1710.7 739.473 1576.42 742.882C1684.5 793.651 1820.52 833.616 1913.66 800.344C1967.05 781.27 2002.48 750.591 2020.98 714.407Z" fill="#5C0101"/>
<path fill-rule="evenodd" clip-rule="evenodd" d="M366.123 523.502C315.817 384.059 359.581 199.669 470.691 86.2054C498.634 57.6712 530.837 33.6213 566.875 15.9018C224.964 -57.4081 45.6642 133.001 7.69922 376.847C105.338 865.174 738.529 690.168 738.529 690.168C599.738 719.256 481.364 704.241 402.736 593.962C387.36 572.396 375.207 548.681 366.123 523.502Z" fill="#690000"/>
<path d="M1215.62 1018H1140.92V895.6H1158.2V1004.5H1213.46L1215.62 1018ZM1231.89 996.4C1234.89 996.4 1237.41 997.48 1239.45 999.64C1241.49 1001.68 1242.51 1004.2 1242.51 1007.2C1242.51 1010.2 1241.49 1012.78 1239.45 1014.94C1237.41 1016.98 1234.89 1018 1231.89 1018C1228.77 1018 1226.13 1016.98 1223.97 1014.94C1221.93 1012.78 1220.91 1010.2 1220.91 1007.2C1220.91 1004.2 1221.93 1001.68 1223.97 999.64C1226.13 997.48 1228.77 996.4 1231.89 996.4ZM1342.37 918.82L1322.75 971.38H1362.53L1342.37 918.82ZM1350.47 895.6L1397.63 1015.48L1380.53 1018L1367.75 985.24H1317.89L1305.65 1018H1288.73L1334.81 895.6H1350.47ZM1412.07 996.4C1415.07 996.4 1417.59 997.48 1419.63 999.64C1421.67 1001.68 1422.69 1004.2 1422.69 1007.2C1422.69 1010.2 1421.67 1012.78 1419.63 1014.94C1417.59 1016.98 1415.07 1018 1412.07 1018C1408.95 1018 1406.31 1016.98 1404.15 1014.94C1402.11 1012.78 1401.09 1010.2 1401.09 1007.2C1401.09 1004.2 1402.11 1001.68 1404.15 999.64C1406.31 997.48 1408.95 996.4 1412.07 996.4ZM1484.75 1018V895.6H1502.03V1018H1484.75ZM1535.9 1018V895.6H1551.2L1606.1 972.64L1614.74 986.14V895.6H1632.2V1018H1616.72L1560.02 937.54L1553.18 926.74V1018H1535.9ZM1717.82 963.1H1683.08V1018H1665.8V895.6H1731.86L1734.38 908.92H1683.08V949.96H1715.66L1717.82 963.1ZM1754.22 1018V895.6H1771.5V1018H1754.22ZM1805.37 1018V895.6H1820.67L1875.57 972.64L1884.21 986.14V895.6H1901.67V1018H1886.19L1829.49 937.54L1822.65 926.74V1018H1805.37ZM1935.28 1018V895.6H1952.56V1018H1935.28ZM2066.71 909.28H2026.39V1018H2008.93V909.28H1970.95V895.6H2064.37C2064.73 897.88 2065.09 900.16 2065.45 902.44C2065.81 904.72 2066.23 907 2066.71 909.28ZM2110.78 1018V969.4L2069.2 898.12L2087.02 895.6L2119.42 952.12L2152.54 895.6H2170.9L2128.24 969.22L2128.06 1018H2110.78Z" fill="white"/>
<defs>
<linearGradient id="paint0_linear_21_97" x1="59.5" y1="889" x2="1270.98" y2="600.361" gradientUnits="userSpaceOnUse">
<stop/>
<stop offset="1" stop-color="#8D0303"/>
</linearGradient>
</defs>
</svg>
